<mxfile host="app.diagrams.net" modified="2022-11-22T12:39:14.249Z" agent="5.0 (Windows NT 10.0; Win64; x64) AppleWebKit/537.36 (KHTML, like Gecko) Chrome/107.0.0.0 Safari/537.36" etag="4OA_p8gsbHr6EfJLQxSf" version="20.5.3" type="github">
  <diagram id="kgpKYQtTHZ0yAKxKKP6v" name="Page-1">
    <mxGraphModel dx="292" dy="158" grid="1" gridSize="10" guides="1" tooltips="1" connect="1" arrows="1" fold="1" page="1" pageScale="1" pageWidth="850" pageHeight="1100" math="0" shadow="0">
      <root>
        <mxCell id="0" />
        <mxCell id="1" parent="0" />
        <mxCell id="kjz46jC-KRS-D13TOAtf-16" value="" style="endArrow=none;dashed=1;html=1;rounded=1;" parent="1" edge="1">
          <mxGeometry width="50" height="50" relative="1" as="geometry">
            <mxPoint x="115" y="820" as="sourcePoint" />
            <mxPoint x="115" y="137" as="targetPoint" />
          </mxGeometry>
        </mxCell>
        <mxCell id="kjz46jC-KRS-D13TOAtf-8" value="&lt;span style=&quot;&quot;&gt;Application IHM&lt;/span&gt;" style="shape=umlLifeline;perimeter=lifelinePerimeter;whiteSpace=wrap;html=1;container=0;collapsible=0;recursiveResize=0;outlineConnect=0;rounded=1;" parent="1" vertex="1">
          <mxGeometry x="263.46" y="77" width="100" height="793" as="geometry" />
        </mxCell>
        <mxCell id="kjz46jC-KRS-D13TOAtf-9" value="user" style="shape=umlActor;verticalLabelPosition=bottom;verticalAlign=top;html=1;rounded=1;" parent="1" vertex="1">
          <mxGeometry x="100" y="59" width="30" height="60" as="geometry" />
        </mxCell>
        <mxCell id="kjz46jC-KRS-D13TOAtf-10" value="&lt;span style=&quot;&quot;&gt;Application&lt;/span&gt;" style="shape=umlLifeline;perimeter=lifelinePerimeter;whiteSpace=wrap;html=1;container=0;collapsible=0;recursiveResize=0;outlineConnect=0;rounded=1;" parent="1" vertex="1">
          <mxGeometry x="462" y="77" width="100" height="803" as="geometry" />
        </mxCell>
        <mxCell id="kjz46jC-KRS-D13TOAtf-11" value="&lt;span style=&quot;&quot;&gt;Storage&lt;/span&gt;" style="shape=umlLifeline;perimeter=lifelinePerimeter;whiteSpace=wrap;html=1;container=0;collapsible=0;recursiveResize=0;outlineConnect=0;rounded=1;" parent="1" vertex="1">
          <mxGeometry x="660" y="77" width="100" height="653" as="geometry" />
        </mxCell>
        <mxCell id="kjz46jC-KRS-D13TOAtf-12" value="" style="html=1;points=[];perimeter=orthogonalPerimeter;rounded=0;glass=0;labelBackgroundColor=none;fillStyle=auto;" parent="1" vertex="1">
          <mxGeometry x="110" y="147" width="10" height="653" as="geometry" />
        </mxCell>
        <mxCell id="kjz46jC-KRS-D13TOAtf-13" value="" style="html=1;points=[];perimeter=orthogonalPerimeter;rounded=0;glass=0;labelBackgroundColor=none;fillStyle=auto;" parent="1" vertex="1">
          <mxGeometry x="308.46" y="147" width="10" height="703" as="geometry" />
        </mxCell>
        <mxCell id="kjz46jC-KRS-D13TOAtf-14" value="" style="html=1;points=[];perimeter=orthogonalPerimeter;rounded=0;glass=0;labelBackgroundColor=none;fillStyle=auto;" parent="1" vertex="1">
          <mxGeometry x="507" y="149" width="10" height="711" as="geometry" />
        </mxCell>
        <mxCell id="kjz46jC-KRS-D13TOAtf-15" value="" style="html=1;points=[];perimeter=orthogonalPerimeter;rounded=0;glass=0;labelBackgroundColor=none;fillStyle=auto;" parent="1" vertex="1">
          <mxGeometry x="705" y="190" width="10" height="520" as="geometry" />
        </mxCell>
        <mxCell id="kjz46jC-KRS-D13TOAtf-17" value="" style="endArrow=block;dashed=1;endFill=0;endSize=12;html=1;rounded=1;exitX=-0.161;exitY=0.058;exitDx=0;exitDy=0;exitPerimeter=0;" parent="1" edge="1">
          <mxGeometry width="160" relative="1" as="geometry">
            <mxPoint x="703.3900000000001" y="264.35" as="sourcePoint" />
            <mxPoint x="516.0000000000002" y="264.1700000000001" as="targetPoint" />
          </mxGeometry>
        </mxCell>
        <mxCell id="kjz46jC-KRS-D13TOAtf-18" value="" style="endArrow=block;dashed=1;endFill=0;endSize=12;html=1;rounded=1;" parent="1" edge="1">
          <mxGeometry width="160" relative="1" as="geometry">
            <mxPoint x="503.9200000000003" y="442.8299999999999" as="sourcePoint" />
            <mxPoint x="318" y="442.8299999999999" as="targetPoint" />
          </mxGeometry>
        </mxCell>
        <mxCell id="kjz46jC-KRS-D13TOAtf-19" value="" style="endArrow=open;endFill=1;endSize=12;html=1;rounded=1;targetPerimeterSpacing=-4;sourcePerimeterSpacing=3;" parent="1" edge="1">
          <mxGeometry width="160" relative="1" as="geometry">
            <mxPoint x="517" y="298.0000000000001" as="sourcePoint" />
            <mxPoint x="707" y="298.0000000000001" as="targetPoint" />
          </mxGeometry>
        </mxCell>
        <mxCell id="kjz46jC-KRS-D13TOAtf-20" value="" style="endArrow=block;dashed=1;endFill=0;endSize=12;html=1;rounded=1;targetPerimeterSpacing=-4;sourcePerimeterSpacing=3;" parent="1" edge="1">
          <mxGeometry width="160" relative="1" as="geometry">
            <mxPoint x="706.4200000000003" y="396.8299999999999" as="sourcePoint" />
            <mxPoint x="516.5866666666668" y="396.8299999999999" as="targetPoint" />
          </mxGeometry>
        </mxCell>
        <mxCell id="kjz46jC-KRS-D13TOAtf-21" value="Execute application" style="text;html=1;align=center;verticalAlign=middle;resizable=0;points=[];autosize=1;strokeColor=none;fillColor=none;rounded=1;" parent="1" vertex="1">
          <mxGeometry x="150" y="147" width="130" height="30" as="geometry" />
        </mxCell>
        <mxCell id="kjz46jC-KRS-D13TOAtf-22" value="" style="endArrow=open;endFill=1;endSize=12;html=1;rounded=1;entryX=-0.015;entryY=0.014;entryDx=0;entryDy=0;entryPerimeter=0;" parent="1" edge="1">
          <mxGeometry width="160" relative="1" as="geometry">
            <mxPoint x="120" y="177" as="sourcePoint" />
            <mxPoint x="308.3100000000002" y="178.19200000000012" as="targetPoint" />
          </mxGeometry>
        </mxCell>
        <mxCell id="kjz46jC-KRS-D13TOAtf-23" value="Start program process" style="text;html=1;align=center;verticalAlign=middle;resizable=0;points=[];autosize=1;strokeColor=none;fillColor=none;rounded=1;" parent="1" vertex="1">
          <mxGeometry x="343" y="167" width="140" height="30" as="geometry" />
        </mxCell>
        <mxCell id="kjz46jC-KRS-D13TOAtf-24" value="" style="endArrow=open;endFill=1;endSize=12;html=1;rounded=1;exitX=0.913;exitY=0.022;exitDx=0;exitDy=0;exitPerimeter=0;" parent="1" edge="1">
          <mxGeometry width="160" relative="1" as="geometry">
            <mxPoint x="317.5899999999999" y="196.01599999999996" as="sourcePoint" />
            <mxPoint x="508" y="196" as="targetPoint" />
          </mxGeometry>
        </mxCell>
        <mxCell id="kjz46jC-KRS-D13TOAtf-25" value="" style="endArrow=block;dashed=1;endFill=0;endSize=12;html=1;rounded=1;exitX=-0.125;exitY=0.144;exitDx=0;exitDy=0;exitPerimeter=0;" parent="1" edge="1">
          <mxGeometry width="160" relative="1" as="geometry">
            <mxPoint x="307.21000000000004" y="467.8320000000001" as="sourcePoint" />
            <mxPoint x="120.08666666666682" y="468" as="targetPoint" />
          </mxGeometry>
        </mxCell>
        <mxCell id="kjz46jC-KRS-D13TOAtf-26" value="Verify folder exists" style="text;html=1;align=center;verticalAlign=middle;resizable=0;points=[];autosize=1;strokeColor=none;fillColor=none;rounded=1;" parent="1" vertex="1">
          <mxGeometry x="551.5" y="182" width="120" height="30" as="geometry" />
        </mxCell>
        <mxCell id="kjz46jC-KRS-D13TOAtf-27" value="Alternative" style="shape=umlFrame;whiteSpace=wrap;html=1;width=60;height=35;" parent="1" vertex="1">
          <mxGeometry x="38" y="232" width="702" height="177" as="geometry" />
        </mxCell>
        <mxCell id="kjz46jC-KRS-D13TOAtf-28" value="Loading screen" style="text;html=1;align=center;verticalAlign=middle;resizable=0;points=[];autosize=1;strokeColor=none;fillColor=none;rounded=1;" parent="1" vertex="1">
          <mxGeometry x="353.99999999999994" y="413" width="110" height="30" as="geometry" />
        </mxCell>
        <mxCell id="kjz46jC-KRS-D13TOAtf-29" value="[if folder is &lt;br&gt;inexistent]" style="text;html=1;align=center;verticalAlign=middle;resizable=0;points=[];autosize=1;strokeColor=none;fillColor=none;" parent="1" vertex="1">
          <mxGeometry x="30" y="266" width="80" height="40" as="geometry" />
        </mxCell>
        <mxCell id="kjz46jC-KRS-D13TOAtf-30" value="[else]" style="text;html=1;align=center;verticalAlign=middle;resizable=0;points=[];autosize=1;strokeColor=none;fillColor=none;" parent="1" vertex="1">
          <mxGeometry x="33" y="358" width="50" height="30" as="geometry" />
        </mxCell>
        <mxCell id="kjz46jC-KRS-D13TOAtf-31" value="Inexistent folder" style="text;html=1;align=center;verticalAlign=middle;resizable=0;points=[];autosize=1;strokeColor=none;fillColor=none;rounded=1;" parent="1" vertex="1">
          <mxGeometry x="557.0000000000001" y="234.16999999999996" width="110" height="30" as="geometry" />
        </mxCell>
        <mxCell id="kjz46jC-KRS-D13TOAtf-32" value="" style="line;strokeWidth=1;fillColor=none;align=left;verticalAlign=middle;spacingTop=-1;spacingLeft=3;spacingRight=3;rotatable=0;labelPosition=right;points=[];portConstraint=eastwest;dashed=1;" parent="1" vertex="1">
          <mxGeometry x="38" y="358" width="700" height="8" as="geometry" />
        </mxCell>
        <mxCell id="kjz46jC-KRS-D13TOAtf-33" value="Set folder" style="text;html=1;align=center;verticalAlign=middle;resizable=0;points=[];autosize=1;strokeColor=none;fillColor=none;rounded=1;" parent="1" vertex="1">
          <mxGeometry x="577.42" y="266" width="70" height="30" as="geometry" />
        </mxCell>
        <mxCell id="kjz46jC-KRS-D13TOAtf-34" value="Existent folder" style="text;html=1;align=center;verticalAlign=middle;resizable=0;points=[];autosize=1;strokeColor=none;fillColor=none;rounded=1;" parent="1" vertex="1">
          <mxGeometry x="561.5" y="369" width="100" height="30" as="geometry" />
        </mxCell>
        <mxCell id="kjz46jC-KRS-D13TOAtf-35" value="Display operation interface&lt;br&gt;(Console)" style="text;html=1;align=center;verticalAlign=middle;resizable=0;points=[];autosize=1;strokeColor=none;fillColor=none;rounded=1;" parent="1" vertex="1">
          <mxGeometry x="130" y="428" width="170" height="40" as="geometry" />
        </mxCell>
        <mxCell id="kjz46jC-KRS-D13TOAtf-36" value="" style="endArrow=open;endFill=1;endSize=12;html=1;rounded=1;targetPerimeterSpacing=-4;sourcePerimeterSpacing=3;" parent="1" edge="1">
          <mxGeometry width="160" relative="1" as="geometry">
            <mxPoint x="516.0799999999999" y="214" as="sourcePoint" />
            <mxPoint x="706.0799999999999" y="214" as="targetPoint" />
          </mxGeometry>
        </mxCell>
        <mxCell id="kjz46jC-KRS-D13TOAtf-37" value="" style="endArrow=block;dashed=1;endFill=0;endSize=12;html=1;rounded=1;targetPerimeterSpacing=-4;sourcePerimeterSpacing=4;jumpSize=7;exitX=0.12;exitY=0.279;exitDx=0;exitDy=0;exitPerimeter=0;" parent="1" edge="1">
          <mxGeometry width="160" relative="1" as="geometry">
            <mxPoint x="703.2" y="335.08000000000004" as="sourcePoint" />
            <mxPoint x="517" y="335" as="targetPoint" />
          </mxGeometry>
        </mxCell>
        <mxCell id="kjz46jC-KRS-D13TOAtf-38" value="Folder created successfully" style="text;html=1;align=center;verticalAlign=middle;resizable=0;points=[];autosize=1;strokeColor=none;fillColor=none;rounded=1;" parent="1" vertex="1">
          <mxGeometry x="527.5000000000001" y="302.99999999999994" width="170" height="30" as="geometry" />
        </mxCell>
        <mxCell id="kjz46jC-KRS-D13TOAtf-39" value="Loading screen" style="text;html=1;align=center;verticalAlign=middle;resizable=0;points=[];autosize=1;strokeColor=none;fillColor=none;rounded=1;" parent="1" vertex="1">
          <mxGeometry x="355.34" y="680" width="110" height="30" as="geometry" />
        </mxCell>
        <mxCell id="kjz46jC-KRS-D13TOAtf-40" value="" style="endArrow=block;dashed=1;endFill=0;endSize=12;html=1;rounded=1;exitX=-0.211;exitY=0.186;exitDx=0;exitDy=0;exitPerimeter=0;" parent="1" edge="1">
          <mxGeometry width="160" relative="1" as="geometry">
            <mxPoint x="504.80999999999983" y="707.4079999999999" as="sourcePoint" />
            <mxPoint x="318.91999999999973" y="708" as="targetPoint" />
          </mxGeometry>
        </mxCell>
        <mxCell id="kjz46jC-KRS-D13TOAtf-43" value="Select pagination query&lt;br&gt;or normal query&amp;nbsp;" style="text;html=1;align=center;verticalAlign=middle;resizable=0;points=[];autosize=1;strokeColor=none;fillColor=none;rounded=1;" parent="1" vertex="1">
          <mxGeometry x="140.82999999999998" y="588" width="150" height="40" as="geometry" />
        </mxCell>
        <mxCell id="kjz46jC-KRS-D13TOAtf-45" value="" style="endArrow=open;endFill=1;endSize=12;html=1;rounded=1;entryX=-0.083;entryY=0.173;entryDx=0;entryDy=0;entryPerimeter=0;" parent="1" edge="1">
          <mxGeometry width="160" relative="1" as="geometry">
            <mxPoint x="318.91999999999996" y="643" as="sourcePoint" />
            <mxPoint x="507.09000000000003" y="642.444" as="targetPoint" />
          </mxGeometry>
        </mxCell>
        <mxCell id="kjz46jC-KRS-D13TOAtf-46" value="Ask open folder" style="text;html=1;align=center;verticalAlign=middle;resizable=0;points=[];autosize=1;strokeColor=none;fillColor=none;rounded=1;" parent="1" vertex="1">
          <mxGeometry x="353.99999999999994" y="614" width="110" height="30" as="geometry" />
        </mxCell>
        <mxCell id="kjz46jC-KRS-D13TOAtf-48" value="" style="endArrow=open;endFill=1;endSize=12;html=1;rounded=1;entryX=0.071;entryY=0.165;entryDx=0;entryDy=0;entryPerimeter=0;" parent="1" edge="1">
          <mxGeometry width="160" relative="1" as="geometry">
            <mxPoint x="120.41000000000004" y="629.38" as="sourcePoint" />
            <mxPoint x="309.58000000000004" y="629" as="targetPoint" />
          </mxGeometry>
        </mxCell>
        <mxCell id="kjz46jC-KRS-D13TOAtf-49" value="" style="endArrow=block;dashed=1;endFill=0;endSize=12;html=1;rounded=1;exitX=-0.125;exitY=0.144;exitDx=0;exitDy=0;exitPerimeter=0;" parent="1" edge="1">
          <mxGeometry width="160" relative="1" as="geometry">
            <mxPoint x="307.12000000000006" y="728.8320000000001" as="sourcePoint" />
            <mxPoint x="119.99666666666681" y="729" as="targetPoint" />
          </mxGeometry>
        </mxCell>
        <mxCell id="kjz46jC-KRS-D13TOAtf-50" value="Display folder contents" style="text;html=1;align=center;verticalAlign=middle;resizable=0;points=[];autosize=1;strokeColor=none;fillColor=none;rounded=1;" parent="1" vertex="1">
          <mxGeometry x="145.82999999999998" y="699" width="140" height="30" as="geometry" />
        </mxCell>
        <mxCell id="kjz46jC-KRS-D13TOAtf-51" value="" style="endArrow=block;endFill=0;endSize=12;html=1;rounded=1;entryX=-0.002;entryY=0.916;entryDx=0;entryDy=0;entryPerimeter=0;" parent="1" edge="1" target="kjz46jC-KRS-D13TOAtf-14">
          <mxGeometry width="160" relative="1" as="geometry">
            <mxPoint x="318.2500000000002" y="800" as="sourcePoint" />
            <mxPoint x="508.1600000000001" y="801.212" as="targetPoint" />
          </mxGeometry>
        </mxCell>
        <mxCell id="kjz46jC-KRS-D13TOAtf-52" value="" style="endArrow=block;endFill=0;endSize=12;html=1;rounded=1;" parent="1" edge="1">
          <mxGeometry width="160" relative="1" as="geometry">
            <mxPoint x="120.00000000000023" y="780" as="sourcePoint" />
            <mxPoint x="309.5" y="780" as="targetPoint" />
          </mxGeometry>
        </mxCell>
        <mxCell id="kjz46jC-KRS-D13TOAtf-53" value="Execute shutdown procedure" style="text;html=1;align=center;verticalAlign=middle;resizable=0;points=[];autosize=1;strokeColor=none;fillColor=none;rounded=1;" parent="1" vertex="1">
          <mxGeometry x="321.25" y="770" width="180" height="30" as="geometry" />
        </mxCell>
        <mxCell id="kjz46jC-KRS-D13TOAtf-54" value="Shutdown" style="text;html=1;align=center;verticalAlign=middle;resizable=0;points=[];autosize=1;strokeColor=none;fillColor=none;rounded=1;" parent="1" vertex="1">
          <mxGeometry x="342.40999999999997" y="819" width="80" height="30" as="geometry" />
        </mxCell>
        <mxCell id="kjz46jC-KRS-D13TOAtf-55" value="" style="endArrow=open;endFill=1;endSize=12;html=1;rounded=0;" parent="1" edge="1">
          <mxGeometry width="160" relative="1" as="geometry">
            <mxPoint x="516.4999999999998" y="819" as="sourcePoint" />
            <mxPoint x="516.310344827586" y="839" as="targetPoint" />
            <Array as="points">
              <mxPoint x="546.5000000000001" y="819" />
              <mxPoint x="546.5000000000001" y="839" />
            </Array>
          </mxGeometry>
        </mxCell>
        <mxCell id="kjz46jC-KRS-D13TOAtf-56" value="Shutdown" style="text;html=1;align=center;verticalAlign=middle;resizable=0;points=[];autosize=1;strokeColor=none;fillColor=none;rounded=1;" parent="1" vertex="1">
          <mxGeometry x="541.08" y="819" width="80" height="30" as="geometry" />
        </mxCell>
        <mxCell id="kjz46jC-KRS-D13TOAtf-57" value="Select shutdown application" style="text;html=1;align=center;verticalAlign=middle;resizable=0;points=[];autosize=1;strokeColor=none;fillColor=none;rounded=1;" parent="1" vertex="1">
          <mxGeometry x="130" y="750" width="170" height="30" as="geometry" />
        </mxCell>
        <mxCell id="kjz46jC-KRS-D13TOAtf-58" value="" style="endArrow=open;endFill=1;endSize=12;html=1;rounded=0;" parent="1" edge="1">
          <mxGeometry width="160" relative="1" as="geometry">
            <mxPoint x="319.1700000000001" y="817.9999999999995" as="sourcePoint" />
            <mxPoint x="319.00333333333333" y="837.9999999999995" as="targetPoint" />
            <Array as="points">
              <mxPoint x="347" y="818" />
              <mxPoint x="347" y="838" />
            </Array>
          </mxGeometry>
        </mxCell>
        <mxCell id="kjz46jC-KRS-D13TOAtf-59" value="Loading screen" style="text;html=1;align=center;verticalAlign=middle;resizable=0;points=[];autosize=1;strokeColor=none;fillColor=none;rounded=1;" parent="1" vertex="1">
          <mxGeometry x="355.25" y="528.91" width="110" height="30" as="geometry" />
        </mxCell>
        <mxCell id="kjz46jC-KRS-D13TOAtf-60" value="" style="endArrow=block;dashed=1;endFill=0;endSize=12;html=1;rounded=1;exitX=-0.211;exitY=0.186;exitDx=0;exitDy=0;exitPerimeter=0;" parent="1" edge="1">
          <mxGeometry width="160" relative="1" as="geometry">
            <mxPoint x="505.7199999999998" y="556.3179999999999" as="sourcePoint" />
            <mxPoint x="319.8299999999997" y="556.91" as="targetPoint" />
          </mxGeometry>
        </mxCell>
        <mxCell id="kjz46jC-KRS-D13TOAtf-61" value="Select consult folder" style="text;html=1;align=center;verticalAlign=middle;resizable=0;points=[];autosize=1;strokeColor=none;fillColor=none;rounded=1;" parent="1" vertex="1">
          <mxGeometry x="150.83" y="477.90999999999997" width="130" height="30" as="geometry" />
        </mxCell>
        <mxCell id="kjz46jC-KRS-D13TOAtf-62" value="" style="endArrow=open;endFill=1;endSize=12;html=1;rounded=1;entryX=0.071;entryY=0.165;entryDx=0;entryDy=0;entryPerimeter=0;" parent="1" edge="1">
          <mxGeometry width="160" relative="1" as="geometry">
            <mxPoint x="120.83000000000004" y="507.90999999999997" as="sourcePoint" />
            <mxPoint x="310" y="507.52999999999986" as="targetPoint" />
          </mxGeometry>
        </mxCell>
        <mxCell id="kjz46jC-KRS-D13TOAtf-63" value="Display creating interface" style="text;html=1;align=center;verticalAlign=middle;resizable=0;points=[];autosize=1;strokeColor=none;fillColor=none;rounded=1;" parent="1" vertex="1">
          <mxGeometry x="135.83" y="548.91" width="160" height="30" as="geometry" />
        </mxCell>
        <mxCell id="kjz46jC-KRS-D13TOAtf-64" value="" style="endArrow=block;dashed=1;endFill=0;endSize=12;html=1;rounded=1;exitX=-0.035;exitY=0.198;exitDx=0;exitDy=0;exitPerimeter=0;" parent="1" edge="1">
          <mxGeometry width="160" relative="1" as="geometry">
            <mxPoint x="309.0100000000002" y="581.054" as="sourcePoint" />
            <mxPoint x="120.98666666666657" y="579.9099999999997" as="targetPoint" />
          </mxGeometry>
        </mxCell>
        <mxCell id="kjz46jC-KRS-D13TOAtf-65" value="" style="endArrow=open;endFill=1;endSize=12;html=1;rounded=1;entryX=-0.083;entryY=0.173;entryDx=0;entryDy=0;entryPerimeter=0;" parent="1" edge="1">
          <mxGeometry width="160" relative="1" as="geometry">
            <mxPoint x="318.8299999999999" y="527.91" as="sourcePoint" />
            <mxPoint x="507" y="527.3539999999999" as="targetPoint" />
          </mxGeometry>
        </mxCell>
        <mxCell id="kjz46jC-KRS-D13TOAtf-66" value="Ask interface consult folder" style="text;html=1;align=center;verticalAlign=middle;resizable=0;points=[];autosize=1;strokeColor=none;fillColor=none;rounded=1;" parent="1" vertex="1">
          <mxGeometry x="327.83" y="498.90999999999997" width="170" height="30" as="geometry" />
        </mxCell>
        <mxCell id="kjz46jC-KRS-D13TOAtf-67" value="" style="endArrow=open;endFill=1;endSize=12;html=1;rounded=1;entryX=-0.083;entryY=0.173;entryDx=0;entryDy=0;entryPerimeter=0;" parent="1" edge="1">
          <mxGeometry width="160" relative="1" as="geometry">
            <mxPoint x="518.4100000000001" y="662.38" as="sourcePoint" />
            <mxPoint x="706.5800000000002" y="661.824" as="targetPoint" />
          </mxGeometry>
        </mxCell>
        <mxCell id="kjz46jC-KRS-D13TOAtf-68" value="Query folder data" style="text;html=1;align=center;verticalAlign=middle;resizable=0;points=[];autosize=1;strokeColor=none;fillColor=none;rounded=1;" parent="1" vertex="1">
          <mxGeometry x="548.49" y="633.38" width="120" height="30" as="geometry" />
        </mxCell>
        <mxCell id="kjz46jC-KRS-D13TOAtf-69" value="Data found" style="text;html=1;align=center;verticalAlign=middle;resizable=0;points=[];autosize=1;strokeColor=none;fillColor=none;rounded=1;" parent="1" vertex="1">
          <mxGeometry x="566.97" y="663.38" width="80" height="30" as="geometry" />
        </mxCell>
        <mxCell id="kjz46jC-KRS-D13TOAtf-70" value="" style="endArrow=block;dashed=1;endFill=0;endSize=12;html=1;rounded=1;exitX=-0.211;exitY=0.186;exitDx=0;exitDy=0;exitPerimeter=0;" parent="1" edge="1">
          <mxGeometry width="160" relative="1" as="geometry">
            <mxPoint x="702.4399999999999" y="690.7879999999999" as="sourcePoint" />
            <mxPoint x="516.5499999999997" y="691.38" as="targetPoint" />
          </mxGeometry>
        </mxCell>
      </root>
    </mxGraphModel>
  </diagram>
</mxfile>
